<?xml version="1.0" standalone="no"?>
<!DOCTYPE svg PUBLIC "-//W3C//DTD SVG 20010904//EN"
 "http://www.w3.org/TR/2001/REC-SVG-20010904/DTD/svg10.dtd">
<svg version="1.0" xmlns="http://www.w3.org/2000/svg"
 width="411.754114pt" height="411.456076pt" viewBox="0 0 411.754114 411.456076"
 preserveAspectRatio="xMidYMid meet">
<metadata>
Created by potrace 1.12, written by Peter Selinger 2001-2015
</metadata>
<g transform="translate(-69.122943,480.956076) scale(0.100000,-0.100000)"
fill="#666" stroke="none">
<path d="M1225 4791 c-22 -10 -54 -34 -71 -52 -32 -34 -411 -678 -446 -756
-18 -40 -18 -98 -16 -1495 l3 -1453 37 -78 c50 -103 122 -175 225 -225 l78
-37 1715 0 1715 0 78 37 c103 50 175 122 225 225 l37 78 3 1453 c2 1397 2
1455 -16 1495 -35 78 -414 722 -446 756 -17 18 -49 42 -71 52 -38 18 -99 19
-1525 19 -1426 0 -1487 -1 -1525 -19z m2955 -657 c69 -118 127 -220 128 -225
2 -5 -593 -9 -1558 -9 -965 0 -1560 4 -1558 9 2 5 59 107 128 225 l125 216
1305 0 1305 0 125 -216z m-1311 -961 c27 -17 58 -48 76 -77 l30 -49 3 -378 3
-378 194 -3 193 -3 39 -31 c21 -17 46 -46 55 -65 22 -43 23 -120 2 -162 -21
-42 -556 -581 -613 -618 -64 -41 -140 -41 -202 0 -71 48 -596 580 -614 623
-34 82 -12 166 58 222 l39 31 193 3 194 3 3 377 3 377 28 47 c66 113 205 149
316 81z"/>
</g>
</svg>
