<svg id="Ebene_1" data-name="Ebene 1" xmlns="http://www.w3.org/2000/svg" xmlns:xlink="http://www.w3.org/1999/xlink" viewBox="0 0 2001 2000"><defs><style>.cls-1{fill:#6eb1ff;}.cls-2{fill:#fff;}.cls-3{fill:url(#Unbenannter_Verlauf_49);}</style><linearGradient id="Unbenannter_Verlauf_49" x1="999.5" y1="1879" x2="999.5" y2="1001" gradientUnits="userSpaceOnUse"><stop offset="0.44" stop-color="#6eb1ff"/><stop offset="0.62" stop-color="#97c6ff"/><stop offset="1" stop-color="#deedff"/></linearGradient></defs><title>logo</title><rect class="cls-1" x="1" width="2000" height="2000"/><rect class="cls-2" x="398" y="392" width="1286" height="1286"/><polygon class="cls-3" points="115 1879 1892 1872 1999 1001 0 1001 115 1879"/><path class="cls-1" d="M1598.5.5H399.5c-220,0-400,180-400,400v1199c0,220,180,400,400,400h1199c220,0,400-180,400-400V400.5C1998.5,180.5,1818.5.5,1598.5.5ZM704.7,1465.3,679,1000l25.7-464,804.8,464.7Z" transform="translate(1 0)"/></svg>