<?xml version="1.0" encoding="utf-8"?>
<!-- Generator: Adobe Illustrator 23.0.3, SVG Export Plug-In . SVG Version: 6.00 Build 0)  -->
<svg version="1.1" id="Ebene_1" xmlns="http://www.w3.org/2000/svg" xmlns:xlink="http://www.w3.org/1999/xlink" x="0px" y="0px"
	 viewBox="0 0 2000 2000" style="enable-background:new 0 0 2000 2000;" xml:space="preserve">
<style type="text/css">
	.st0{fill:#6EB1FF;}
	.st1{fill:#FFFFFF;}
	.st2{fill:url(#SVGID_1_);}
</style>
<rect y="0" class="st0" width="2000" height="2000"/>
<rect x="397" y="392" class="st1" width="1286" height="1286"/>
<linearGradient id="SVGID_1_" gradientUnits="userSpaceOnUse" x1="998.5" y1="1879" x2="998.5" y2="1001">
	<stop  offset="0.5063" style="stop-color:#6EB1FF"/>
	<stop  offset="1" style="stop-color:#A6C6FF"/>
</linearGradient>
<polygon class="st2" points="114,1879 1891,1872 1998,1001 -1,1001 "/>
<path class="st0" d="M1598.5,0.5h-1199c-220,0-400,180-400,400v1199c0,220,180,400,400,400h1199c220,0,400-180,400-400v-1199
	C1998.5,180.5,1818.5,0.5,1598.5,0.5z M704.69,1465.32L670,1001l34.69-465l804.81,464.66L704.69,1465.32z"/>
</svg>
